<svg version="1.1" id="Layer_1" xmlns="http://www.w3.org/2000/svg" xmlns:xlink="http://www.w3.org/1999/xlink" x="0px" y="0px"
	 width="100%" viewBox="0 0 1536 672" enable-background="new 0 0 1536 672" xml:space="preserve">
<path fill="#FEFEFE" opacity="1.000000" stroke="none" 
	d="
M896.000000,673.000000 
	C597.694763,673.000000 299.389526,673.000000 1.042144,673.000000 
	C1.042144,449.049194 1.042144,225.098389 1.042144,1.073786 
	C512.902588,1.073786 1024.805176,1.073786 1536.853882,1.073786 
	C1536.853882,224.881409 1536.853882,448.762939 1536.853882,673.000000 
	C1336.970703,673.000000 1136.941284,673.000000 936.393677,672.650024 
	C942.716309,666.621704 944.304321,659.160828 941.982300,651.106567 
	C939.720825,643.262146 932.874756,641.669617 925.731750,641.262024 
	C921.082764,640.996765 916.415588,641.018188 911.773315,640.680664 
	C908.125671,640.415344 906.444153,638.104797 906.832336,634.558655 
	C907.183472,631.351807 908.679260,629.395996 912.455627,630.002991 
	C914.557617,630.340759 916.779358,630.137817 918.927307,629.950928 
	C930.375793,628.954895 936.473694,622.536621 936.507996,611.102539 
	C936.519043,607.412598 935.714111,603.720276 935.250854,599.759216 
	C938.002808,599.634827 940.738342,599.511108 943.387634,599.391357 
	C943.387634,596.734131 943.387634,594.645264 943.387634,592.528748 
	C936.458435,592.218994 929.858154,591.888489 923.254761,591.640747 
	C918.464600,591.460938 913.604309,590.830078 908.891174,591.384827 
	C898.032166,592.662842 891.867310,600.306458 891.938965,611.201477 
	C891.988525,618.745117 895.236877,624.516235 901.603394,628.669556 
	C897.458191,634.114136 897.241943,639.460205 900.251160,645.208801 
	C894.244629,649.077026 890.315308,654.297546 891.417542,661.427124 
	C892.035706,665.425293 894.414490,669.151306 896.000000,673.000000 
M493.983948,566.145691 
	C492.395813,566.266724 490.807709,566.387756 488.133789,566.506226 
	C487.882782,567.119690 487.631775,567.733154 487.111328,569.197327 
	C487.111328,576.813232 487.111328,584.429138 487.111328,591.821167 
	C480.551208,591.485107 474.564117,590.710144 468.623688,590.976379 
	C457.878754,591.457947 449.860840,597.493896 448.413788,607.653259 
	C447.142609,616.577759 447.094116,625.916443 448.172089,634.871643 
	C449.379211,644.900085 456.776245,650.364563 466.878906,650.972107 
	C473.652985,651.379517 479.567230,648.850220 485.330994,645.723938 
	C485.823029,645.457153 486.479523,645.493469 487.179688,645.367371 
	C487.520477,647.044189 487.802399,648.431396 488.062439,649.710876 
	C490.994293,649.710876 493.591522,649.710876 496.425446,649.710876 
	C496.425446,633.289856 496.449188,617.150696 496.417175,601.011719 
	C496.395416,590.032104 496.295563,579.052612 496.271271,567.111389 
	C495.760345,566.883606 495.249420,566.655823 493.983948,566.145691 
M1119.636108,318.094971 
	C1088.991699,323.764221 1066.415771,339.916840 1054.126343,369.062531 
	C1046.576172,386.968658 1045.147339,405.800415 1046.873901,424.960815 
	C1050.181274,461.665924 1071.731079,488.636230 1107.018188,499.042603 
	C1138.771851,508.406952 1170.223267,506.014404 1200.964233,494.184906 
	C1208.617188,491.239960 1215.884888,487.294312 1223.764282,483.605164 
	C1217.899292,473.798187 1212.655151,465.029236 1207.363647,456.181335 
	C1205.515991,457.071533 1204.175537,457.709106 1202.842041,458.361023 
	C1183.290527,467.919922 1162.661987,472.663696 1140.926636,470.847046 
	C1123.321777,469.375641 1107.748291,463.316376 1098.219360,447.098602 
	C1094.107422,440.100128 1091.464111,432.543121 1091.816284,423.678833 
	C1137.589111,423.678833 1182.795776,423.678833 1228.037231,423.678833 
	C1229.963135,406.630157 1229.132568,390.232086 1224.093262,374.307709 
	C1215.965698,348.624023 1200.011841,330.232147 1173.777710,321.694031 
	C1156.301758,316.006409 1138.541382,315.217529 1119.636108,318.094971 
M614.495544,423.873413 
	C619.603027,423.873413 624.710510,423.873413 629.827820,423.873413 
	C631.739014,409.036072 631.058777,394.932190 627.762939,381.074402 
	C621.414185,354.380249 606.709656,334.276703 580.748840,323.549896 
	C564.523010,316.845459 547.492798,315.430359 530.245789,317.072052 
	C496.302826,320.302979 470.804596,336.032959 456.677551,368.032471 
	C448.435211,386.702332 446.925842,406.260437 449.079742,426.267181 
	C453.174622,464.302673 475.401367,490.813782 512.465698,500.250610 
	C545.142700,508.570343 577.209778,505.239166 608.203613,492.056183 
	C614.080017,489.556671 619.677734,486.402039 625.711060,483.396729 
	C619.808167,473.851074 614.425598,465.146851 608.979126,456.339294 
	C607.170776,457.237640 605.856140,457.916107 604.520508,458.550354 
	C583.293945,468.629944 561.098083,473.360413 537.616699,470.080048 
	C524.399780,468.233612 512.534729,463.283478 503.854126,452.608002 
	C497.188171,444.410156 493.706604,434.989197 493.582092,423.874390 
	C533.906616,423.874390 573.702087,423.874390 614.495544,423.873413 
M253.314133,416.871155 
	C252.501999,405.128479 253.076218,393.085114 250.607117,381.701843 
	C244.244553,352.368622 227.562683,331.220917 198.110870,321.665649 
	C177.757996,315.062408 157.110397,314.756134 136.537827,319.918701 
	C112.378883,325.981293 94.150002,339.997345 82.511139,362.332001 
	C72.197235,382.124084 70.253433,403.242432 72.244812,424.967346 
	C75.750488,463.212433 98.889175,490.818298 136.113724,500.213837 
	C170.832458,508.976898 204.469666,504.578247 236.857376,489.745087 
	C240.979797,487.857056 244.859436,485.438904 249.026855,483.170898 
	C243.125885,473.668518 237.717865,464.959900 232.252335,456.158691 
	C230.625168,456.959747 229.444672,457.534607 228.269592,458.120300 
	C208.623459,467.913025 187.847366,472.547729 165.932388,470.869965 
	C151.087097,469.733429 137.611496,464.933289 127.702148,453.001617 
	C120.814178,444.707977 117.664734,435.025635 116.968010,423.763489 
	C162.740799,423.763489 207.799866,423.763489 253.282883,423.763489 
	C253.282883,421.427612 253.282883,419.608063 253.314133,416.871155 
M714.279663,400.950958 
	C714.387634,399.122101 714.445618,397.288666 714.611145,395.465027 
	C717.430298,364.390228 737.374146,347.474030 770.419128,353.388947 
	C782.443420,355.541321 790.582336,363.093811 794.972046,374.538910 
	C798.851074,384.652344 799.828064,395.222992 799.820557,405.940033 
	C799.799622,435.760498 799.771057,465.580994 799.761719,495.401459 
	C799.761353,496.659393 799.923584,497.917419 800.020081,499.321045 
	C814.808167,499.321045 829.248413,499.321045 843.884827,499.321045 
	C843.993347,498.153259 844.160400,497.191833 844.160889,496.230377 
	C844.176636,462.411652 844.369873,428.591003 844.040283,394.775513 
	C843.959778,386.521912 842.899902,378.109497 841.001526,370.074585 
	C836.017395,348.979004 825.872498,331.411835 805.007935,322.040100 
	C795.389404,317.719757 785.158325,316.431854 774.804688,316.348297 
	C751.866943,316.163147 731.895508,322.996094 717.299133,341.796814 
	C716.626221,342.663544 716.105591,343.648499 715.514038,344.578400 
	C715.072021,344.348663 714.629944,344.118958 714.187927,343.889221 
	C714.187927,336.682404 714.187927,329.475586 714.187927,322.179504 
	C698.869141,322.179504 684.169922,322.179504 669.521240,322.179504 
	C669.521240,381.449493 669.521240,440.320953 669.521240,499.204926 
	C684.570679,499.204926 699.272705,499.204926 714.270691,499.204926 
	C714.270691,466.493927 714.270691,434.189728 714.279663,400.950958 
M1174.334473,247.942490 
	C1184.932251,243.617752 1194.356934,237.626007 1202.443848,229.386505 
	C1225.821533,205.567795 1230.640869,167.691803 1213.789062,138.452652 
	C1196.490234,108.437859 1162.057495,93.721863 1129.204956,102.302864 
	C1086.594971,113.432480 1062.790649,157.074997 1075.805542,200.205048 
	C1088.086914,240.904938 1132.505249,262.716492 1174.334473,247.942490 
M586.038269,212.504227 
	C591.498047,202.016479 594.460938,190.890411 594.894043,179.049408 
	C596.451050,136.484680 563.585632,101.422096 520.634644,99.903503 
	C479.680298,98.455513 444.910278,132.402832 443.745331,174.360718 
	C442.232178,228.861359 495.128662,264.884735 542.733887,249.231979 
	C561.749451,242.979599 575.723633,230.338181 586.038269,212.504227 
M762.982300,100.377632 
	C730.920227,104.763573 708.818542,122.115105 698.551758,152.661224 
	C686.744812,187.789703 701.910950,225.255630 733.767883,243.267654 
	C764.489502,260.637787 802.986389,253.890106 826.905945,226.942703 
	C847.296570,203.970795 851.953003,170.233704 838.494629,142.978958 
	C824.266846,114.166046 795.469299,97.705215 762.982300,100.377632 
M944.842529,385.835968 
	C940.858582,383.472839 936.671021,381.389069 932.944885,378.672333 
	C928.754028,375.616699 927.248657,371.092285 927.566833,365.900665 
	C928.010132,358.667572 934.401794,352.207214 943.277832,350.001740 
	C953.063904,347.570129 962.876526,348.270081 972.497742,350.382050 
	C982.510803,352.579987 992.330139,355.660400 1002.649231,358.467896 
	C1006.014526,349.125916 1009.484863,339.492462 1013.012207,329.700623 
	C1011.916260,329.097992 1011.240051,328.625183 1010.493286,328.332581 
	C1006.782349,326.878448 1003.116150,325.269409 999.319702,324.080811 
	C972.218628,315.595703 944.856567,312.586670 917.424255,322.105713 
	C898.322571,328.734039 886.699707,342.087585 884.595459,362.686218 
	C882.469116,383.500854 889.449829,400.261353 908.165222,410.569061 
	C917.710815,415.826385 928.146057,419.463898 938.161621,423.873474 
	C947.406128,427.943573 957.209229,431.127899 965.714661,436.399200 
	C976.931274,443.350830 976.552856,458.011749 965.186523,464.833649 
	C959.697693,468.127991 952.899353,470.089813 946.484375,470.823975 
	C930.667114,472.634277 915.361145,469.066223 900.371948,464.201111 
	C895.864746,462.738190 891.428284,461.057495 886.796082,459.418762 
	C882.996704,469.686127 879.378479,479.463989 875.679016,489.461395 
	C877.099915,490.219818 878.206360,490.927185 879.399231,491.429352 
	C893.944824,497.552887 909.212158,501.094574 924.820251,502.532349 
	C944.286804,504.325470 963.795105,504.555237 982.462219,497.128082 
	C1003.235107,488.863098 1015.587097,473.996185 1016.874756,451.291962 
	C1018.181580,428.248352 1007.728882,411.795563 986.780701,402.519073 
	C973.267517,396.535095 959.292786,391.593475 944.842529,385.835968 
M408.630829,479.107758 
	C426.863617,452.574951 419.629486,419.782043 391.398438,404.385315 
	C381.115662,398.777252 369.615570,395.439301 358.831482,390.700134 
	C350.522583,387.048676 341.753693,383.817474 334.479065,378.600861 
	C325.775635,372.359650 326.895721,360.822632 335.545502,354.382874 
	C343.895691,348.166077 353.699707,347.536896 363.243469,348.989502 
	C376.781219,351.049927 390.107758,354.498138 404.091248,357.473907 
	C407.163483,348.954956 410.632690,339.335236 414.178925,329.501984 
	C412.464966,328.653717 411.180328,327.931519 409.830902,327.363129 
	C391.144470,319.492371 371.582977,315.971130 351.390076,316.323456 
	C337.490051,316.565979 324.010315,318.895935 311.242859,325.103027 
	C278.855652,340.848602 278.378784,388.832672 302.946136,405.814758 
	C311.178711,411.505463 320.499695,415.772003 329.673859,419.912537 
	C341.449707,425.227356 353.755737,429.375275 365.486938,434.778046 
	C372.018799,437.786316 375.933777,443.487396 375.468170,451.250732 
	C374.995239,459.135529 370.227600,463.972809 363.595520,467.221069 
	C361.090637,468.447937 358.302734,469.218140 355.561157,469.819672 
	C342.927155,472.591919 330.321014,471.535004 317.940430,468.522827 
	C308.144135,466.139435 298.559723,462.885162 288.454956,459.891327 
	C284.766479,469.641602 280.989990,479.624512 277.201263,489.639832 
	C278.228973,490.204590 278.781494,490.573975 279.382538,490.829102 
	C306.214752,502.217041 334.299805,505.657288 363.022980,502.497040 
	C380.598145,500.563385 396.568817,494.065216 408.630829,479.107758 
M864.441284,146.058395 
	C892.593323,174.126328 920.745300,202.194260 949.254639,230.618408 
	C969.629028,207.835587 976.594421,182.138672 967.793884,153.746521 
	C958.387573,123.399689 937.191528,104.377983 905.458984,99.540237 
	C880.566345,95.745277 858.674744,103.579582 839.071472,122.089088 
	C847.725342,130.255539 855.833374,137.906845 864.441284,146.058395 
M614.906982,140.469986 
	C601.167847,171.269196 603.001648,200.613754 624.865601,226.965012 
	C639.601685,244.725449 659.134583,253.523987 682.813599,252.972946 
	C682.813599,201.634201 682.813599,151.087982 682.813599,99.467720 
	C676.157349,100.298058 669.823181,100.483521 663.800049,101.948082 
	C642.011047,107.246231 626.346313,120.667114 614.906982,140.469986 
M1013.848877,114.323761 
	C983.185364,137.948868 973.746460,178.662476 991.133118,212.306335 
	C1004.538330,238.246201 1039.040527,258.494446 1059.136719,252.148651 
	C1059.136719,201.622330 1059.136719,151.073441 1059.136719,100.171677 
	C1042.333008,99.645905 1027.564209,104.076134 1013.848877,114.323761 
M1073.378052,607.862244 
	C1073.378052,609.951904 1073.378052,612.041565 1073.378052,614.428894 
	C1070.760498,614.428894 1068.783936,614.291565 1066.832520,614.454773 
	C1061.045776,614.938477 1055.157227,615.018372 1049.515747,616.224854 
	C1041.962158,617.840515 1038.077881,623.632019 1037.746094,632.081421 
	C1037.380005,641.403992 1040.584106,647.673096 1047.614746,649.683533 
	C1051.172974,650.701111 1055.285767,651.085938 1058.877197,650.380066 
	C1064.465698,649.281677 1069.823486,647.009827 1075.398193,645.196533 
	C1078.553467,650.292297 1083.436279,650.957764 1089.209106,649.918640 
	C1089.454956,647.540710 1089.671509,645.446106 1089.902222,643.213257 
	C1084.582764,642.515015 1082.990967,639.649902 1083.138916,634.824524 
	C1083.429565,625.343018 1083.270020,615.845764 1083.196655,606.355835 
	C1083.150513,600.413086 1080.945557,595.151611 1075.293945,592.995789 
	C1063.923706,588.658691 1052.573120,591.039795 1040.919189,593.927551 
	C1041.551880,596.654724 1042.017700,598.662842 1042.452515,600.537354 
	C1049.824585,599.940063 1056.590942,599.100220 1063.374390,598.926697 
	C1069.814575,598.761963 1072.019775,600.850464 1073.378052,607.862244 
M1205.274170,629.708923 
	C1205.274170,627.975525 1205.274170,626.242065 1205.274170,624.020935 
	C1218.454468,624.020935 1231.037354,624.020935 1243.889404,624.020935 
	C1243.889404,619.389404 1244.264160,615.204651 1243.819092,611.109009 
	C1242.486450,598.846313 1235.424683,591.879639 1223.701294,590.786194 
	C1209.984253,589.506714 1200.007324,594.986938 1197.212158,607.193176 
	C1195.439575,614.934204 1195.255493,623.372620 1196.119751,631.306396 
	C1197.448975,643.507996 1205.328979,650.341064 1217.643433,650.724487 
	C1225.708252,650.975525 1233.814575,649.891785 1241.977295,649.401428 
	C1241.977295,646.106323 1241.977295,643.752563 1241.977295,640.986328 
	C1238.187378,641.432312 1234.909302,641.903809 1231.614990,642.182312 
	C1228.139160,642.476196 1224.641724,642.820679 1221.164429,642.731079 
	C1211.727295,642.487976 1208.182861,639.646790 1205.274170,629.708923 
M710.774841,650.796997 
	C719.611938,650.416443 728.449036,650.035889 737.131592,649.661987 
	C737.131592,645.932373 737.131592,643.693848 737.131592,641.316345 
	C729.933289,641.842346 723.156555,642.741211 716.380371,642.737000 
	C706.500488,642.730896 699.021240,636.657776 700.657715,624.152527 
	C713.311218,624.152527 726.052917,624.152527 739.103455,624.152527 
	C739.103455,619.481018 739.386597,615.327576 739.050049,611.225037 
	C738.063110,599.196411 731.217102,592.121643 719.711914,590.871704 
	C705.579468,589.336365 695.164795,594.802063 692.150085,606.548462 
	C690.487427,613.026855 690.080139,620.033997 690.337219,626.755615 
	C690.868164,640.635681 696.575073,647.120117 710.774841,650.796997 
M525.348450,638.109253 
	C522.171570,634.160950 521.246521,629.650269 521.599854,624.174927 
	C534.580688,624.174927 547.170654,624.174927 560.107361,624.174927 
	C560.107361,619.348633 560.455872,615.025391 560.040283,610.776917 
	C558.909912,599.221863 552.123230,592.264832 541.197754,590.977539 
	C527.432983,589.355713 517.507141,594.396057 513.747437,605.479797 
	C510.692993,614.484436 510.603729,623.864014 512.737976,633.049988 
	C515.321167,644.168091 521.502075,649.916138 532.819397,650.623901 
	C541.293091,651.153870 549.874390,649.963562 558.416443,649.538757 
	C558.416443,645.941040 558.416443,643.714844 558.416443,640.926697 
	C555.235535,641.284729 552.462830,641.516663 549.715454,641.920959 
	C541.443176,643.138428 533.168396,644.514526 525.348450,638.109253 
M838.599854,617.511353 
	C838.588318,614.017029 838.382812,610.507202 838.660645,607.036011 
	C838.771729,605.647461 839.650391,603.519226 840.690186,603.144592 
	C845.180786,601.526550 849.796570,599.738953 854.485840,599.307373 
	C862.006531,598.615356 866.031860,602.426636 866.561462,610.015808 
	C866.942932,615.483032 866.759338,620.991516 866.777893,626.481750 
	C866.804199,634.252625 866.784607,642.023621 866.784607,649.799927 
	C870.190002,649.799927 872.999329,649.799927 875.963318,649.799927 
	C875.963318,634.732666 876.443909,619.782471 875.772583,604.884216 
	C875.404297,596.710327 869.498840,592.040955 861.198059,591.079895 
	C853.164185,590.149658 845.769897,592.287231 838.524536,596.267944 
	C837.408752,588.822571 832.427856,593.015747 828.941528,592.105652 
	C828.941528,611.621704 828.941528,630.643127 828.941528,649.619629 
	C832.250305,649.619629 835.182251,649.619629 838.000305,649.619629 
	C838.240845,649.050354 838.476379,648.751709 838.478027,648.451782 
	C838.532776,638.470215 838.565125,628.488647 838.599854,617.511353 
M1132.731567,626.311523 
	C1132.734131,627.643188 1132.722168,628.974976 1132.741089,630.306458 
	C1132.970947,646.488281 1141.249878,653.336548 1157.215576,650.176575 
	C1161.530396,649.322510 1165.645752,647.460266 1170.151978,645.961182 
	C1170.535522,647.252747 1170.923218,648.558472 1171.221436,649.562866 
	C1174.400024,649.562866 1177.131348,649.562866 1179.709717,649.562866 
	C1179.709717,630.256531 1179.709717,611.342529 1179.709717,592.285828 
	C1176.347412,592.285828 1173.316650,592.285828 1169.932739,592.285828 
	C1169.932739,604.460266 1169.935913,616.254639 1169.931763,628.049072 
	C1169.927856,638.972107 1168.881104,640.198853 1158.022339,641.963196 
	C1156.874878,642.149658 1155.710815,642.267334 1154.549561,642.329163 
	C1147.048218,642.729187 1143.163940,639.587097 1142.746216,632.101990 
	C1142.329224,624.630859 1142.410522,617.130249 1142.338257,609.641968 
	C1142.282349,603.855591 1142.327026,598.068176 1142.327026,592.144043 
	C1138.919312,592.144043 1136.004517,592.144043 1132.732300,592.144043 
	C1132.732300,603.414307 1132.732300,614.383057 1132.731567,626.311523 
M668.447632,636.224121 
	C672.861206,621.673157 677.274841,607.122192 681.718262,592.472778 
	C671.988586,591.327454 672.019226,591.336487 669.555420,599.712830 
	C665.756836,612.627563 661.922852,625.531982 658.067566,638.429871 
	C657.678650,639.731262 657.040405,640.958130 656.517822,642.219543 
	C655.935730,642.244690 655.353638,642.269836 654.771545,642.294983 
	C650.099426,625.516907 645.427307,608.738892 640.839783,592.264587 
	C637.110168,592.264587 633.851318,592.264587 630.257812,592.264587 
	C635.937622,611.656189 641.489685,630.611511 647.091431,649.736694 
	C648.302185,649.812927 649.437622,649.927246 650.574890,649.949585 
	C664.410828,650.221313 664.410889,650.217773 668.447632,636.224121 
M1022.834656,615.523010 
	C1025.234863,607.844360 1027.635132,600.165649 1030.144409,592.138367 
	C1028.309326,592.055176 1027.141235,592.121887 1026.017212,591.930237 
	C1021.408508,591.144287 1019.475403,593.020630 1018.296204,597.641724 
	C1015.298462,609.388733 1011.582336,620.952454 1008.154419,632.589661 
	C1007.210693,635.793396 1006.269348,638.997742 1005.326904,642.201843 
	C1004.775879,642.193970 1004.224915,642.186096 1003.673889,642.178284 
	C1003.021973,640.424622 1002.245789,638.706177 1001.737976,636.911743 
	C998.252441,624.594849 994.784973,612.272583 991.388855,599.930786 
	C989.052368,591.440063 989.107483,591.420837 980.093384,592.073608 
	C979.827087,592.092896 979.582031,592.405579 979.110840,592.730774 
	C979.428040,594.061768 979.702026,595.505066 980.116699,596.906677 
	C984.174927,610.622620 988.285461,624.323059 992.322998,638.044983 
	C995.871765,650.105713 995.840454,649.957031 1008.237427,650.077759 
	C1011.614014,650.110657 1012.865173,648.817566 1013.711914,645.908081 
	C1016.592407,636.010681 1019.638367,626.161377 1022.834656,615.523010 
M1295.075439,131.407471 
	C1296.836182,123.095093 1295.607910,115.714561 1291.929443,107.609795 
	C1285.333252,93.076996 1262.094971,87.874741 1249.664673,96.100365 
	C1237.786743,103.960533 1232.336548,117.529671 1236.132446,131.737808 
	C1239.519165,144.414307 1251.238159,153.424896 1264.907959,153.862900 
	C1278.896240,154.311081 1290.153687,146.185577 1295.075439,131.407471 
M586.796204,624.500000 
	C586.796204,605.242798 586.796204,585.985535 586.796204,566.517761 
	C583.132812,566.517761 580.115051,566.517761 576.858521,566.517761 
	C576.858521,594.487488 576.858521,622.057373 576.858521,649.671509 
	C580.144165,649.671509 583.216980,649.671509 586.789978,649.671509 
	C586.789978,641.412903 586.789978,633.456482 586.796204,624.500000 
M1113.186890,611.500732 
	C1113.186890,596.569336 1113.186890,581.637939 1113.186890,566.790833 
	C1103.602051,565.020264 1103.230347,565.290771 1103.221069,573.926392 
	C1103.195190,598.038391 1103.179199,622.150452 1103.173950,646.262451 
	C1103.173706,647.377136 1103.316528,648.491882 1103.397217,649.673462 
	C1106.754150,649.673462 1109.810303,649.673462 1113.189941,649.673462 
	C1113.189941,637.083069 1113.189941,624.791931 1113.186890,611.500732 
M765.216675,617.550537 
	C764.163086,611.266602 765.813477,606.455139 772.425476,604.370972 
	C776.796997,602.993042 781.176331,601.639832 785.423584,600.315674 
	C785.423584,597.368042 785.423584,594.470947 785.423584,590.085144 
	C778.217957,593.438110 771.908020,596.374207 765.336670,599.432007 
	C765.042419,597.111938 764.723328,594.596313 764.400879,592.054504 
	C761.144836,592.054504 758.373596,592.054504 755.429810,592.054504 
	C755.429810,611.369019 755.429810,630.409119 755.429810,649.685913 
	C758.757324,649.685913 761.808289,649.685913 765.221619,649.685913 
	C765.221619,639.121460 765.221619,628.827942 765.216675,617.550537 
M606.409729,607.505432 
	C606.409729,621.566162 606.409729,635.626953 606.409729,649.612305 
	C610.057983,649.612305 613.123840,649.612305 616.118042,649.612305 
	C616.118042,630.265381 616.118042,611.248291 616.118042,592.234253 
	C612.686523,592.234253 609.643616,592.234253 606.408020,592.234253 
	C606.408020,597.231873 606.408020,601.870178 606.409729,607.505432 
M799.474609,636.486816 
	C799.474609,640.897461 799.474609,645.308167 799.474609,649.680664 
	C803.107849,649.680664 806.044556,649.680664 809.103394,649.680664 
	C809.103394,630.372742 809.103394,611.315735 809.103394,592.298828 
	C805.828186,592.298828 802.903503,592.298828 799.472961,592.298828 
	C799.472961,606.902649 799.472961,621.197266 799.474609,636.486816 
M613.910583,567.993774 
	C605.141846,567.911926 604.536926,568.865601 606.816772,579.203735 
	C609.996582,579.203735 613.176392,579.203735 617.667847,579.203735 
	C616.563110,575.019836 615.638550,571.518555 613.910583,567.993774 
M809.443359,577.899475 
	C809.443359,574.681824 809.443359,571.464172 809.443359,568.328857 
	C805.672119,568.328857 802.629517,568.328857 799.456909,568.328857 
	C799.456909,572.234253 799.456909,575.755188 799.456909,580.103516 
	C803.036255,579.604614 806.156189,579.169739 809.443359,577.899475 
z"/>
<path fill="#1D2730" opacity="1.000000" stroke="none" 
	d="
M896.468628,673.000000 
	C894.414490,669.151306 892.035706,665.425293 891.417542,661.427124 
	C890.315308,654.297546 894.244629,649.077026 900.251160,645.208801 
	C897.241943,639.460205 897.458191,634.114136 901.603394,628.669556 
	C895.236877,624.516235 891.988525,618.745117 891.938965,611.201477 
	C891.867310,600.306458 898.032166,592.662842 908.891174,591.384827 
	C913.604309,590.830078 918.464600,591.460938 923.254761,591.640747 
	C929.858154,591.888489 936.458435,592.218994 943.387634,592.528748 
	C943.387634,594.645264 943.387634,596.734131 943.387634,599.391357 
	C940.738342,599.511108 938.002808,599.634827 935.250854,599.759216 
	C935.714111,603.720276 936.519043,607.412598 936.507996,611.102539 
	C936.473694,622.536621 930.375793,628.954895 918.927307,629.950928 
	C916.779358,630.137817 914.557617,630.340759 912.455627,630.002991 
	C908.679260,629.395996 907.183472,631.351807 906.832336,634.558655 
	C906.444153,638.104797 908.125671,640.415344 911.773315,640.680664 
	C916.415588,641.018188 921.082764,640.996765 925.731750,641.262024 
	C932.874756,641.669617 939.720825,643.262146 941.982300,651.106567 
	C944.304321,659.160828 942.716309,666.621704 935.937744,672.650024 
	C922.979126,673.000000 909.958191,673.000000 896.468628,673.000000 
M932.017639,663.143555 
	C934.974426,653.754333 931.651855,649.137390 921.787964,648.944397 
	C918.132629,648.872925 914.350952,649.402588 910.849854,648.637573 
	C905.208923,647.404846 903.398560,651.147095 901.659485,654.861511 
	C899.560059,659.345825 900.801270,664.101318 904.181763,666.553162 
	C910.201904,670.919800 926.316223,669.335510 932.017639,663.143555 
M920.311890,598.787354 
	C917.205688,598.726807 914.079346,598.415894 910.998047,598.664246 
	C906.361267,599.037903 903.217468,601.795471 902.294800,606.255981 
	C901.238708,611.362061 901.045532,616.633362 905.537292,620.525940 
	C910.370667,624.714417 921.337158,623.492249 925.002441,618.520691 
	C929.356995,612.614197 927.410095,602.991150 920.311890,598.787354 
z"/>
<path fill="#161F27" opacity="1.000000" stroke="none" 
	d="
M1120.071289,318.052795 
	C1138.541382,315.217529 1156.301758,316.006409 1173.777710,321.694031 
	C1200.011841,330.232147 1215.965698,348.624023 1224.093262,374.307709 
	C1229.132568,390.232086 1229.963135,406.630157 1228.037231,423.678833 
	C1182.795776,423.678833 1137.589111,423.678833 1091.816284,423.678833 
	C1091.464111,432.543121 1094.107422,440.100128 1098.219360,447.098602 
	C1107.748291,463.316376 1123.321777,469.375641 1140.926636,470.847046 
	C1162.661987,472.663696 1183.290527,467.919922 1202.842041,458.361023 
	C1204.175537,457.709106 1205.515991,457.071533 1207.363647,456.181335 
	C1212.655151,465.029236 1217.899292,473.798187 1223.764282,483.605164 
	C1215.884888,487.294312 1208.617188,491.239960 1200.964233,494.184906 
	C1170.223267,506.014404 1138.771851,508.406952 1107.018188,499.042603 
	C1071.731079,488.636230 1050.181274,461.665924 1046.873901,424.960815 
	C1045.147339,405.800415 1046.576172,386.968658 1054.126343,369.062531 
	C1066.415771,339.916840 1088.991699,323.764221 1120.071289,318.052795 
M1183.714722,381.926758 
	C1176.787964,357.150848 1156.169312,344.666321 1129.904907,349.073273 
	C1108.011230,352.746857 1093.005859,372.307678 1092.440552,394.472351 
	C1123.443726,394.472351 1154.441528,394.472351 1185.902588,394.472351 
	C1185.210938,390.214294 1184.600464,386.456024 1183.714722,381.926758 
z"/>
<path fill="#161F27" opacity="1.000000" stroke="none" 
	d="
M613.996521,423.873901 
	C573.702087,423.874390 533.906616,423.874390 493.582092,423.874390 
	C493.706604,434.989197 497.188171,444.410156 503.854126,452.608002 
	C512.534729,463.283478 524.399780,468.233612 537.616699,470.080048 
	C561.098083,473.360413 583.293945,468.629944 604.520508,458.550354 
	C605.856140,457.916107 607.170776,457.237640 608.979126,456.339294 
	C614.425598,465.146851 619.808167,473.851074 625.711060,483.396729 
	C619.677734,486.402039 614.080017,489.556671 608.203613,492.056183 
	C577.209778,505.239166 545.142700,508.570343 512.465698,500.250610 
	C475.401367,490.813782 453.174622,464.302673 449.079742,426.267181 
	C446.925842,406.260437 448.435211,386.702332 456.677551,368.032471 
	C470.804596,336.032959 496.302826,320.302979 530.245789,317.072052 
	C547.492798,315.430359 564.523010,316.845459 580.748840,323.549896 
	C606.709656,334.276703 621.414185,354.380249 627.762939,381.074402 
	C631.058777,394.932190 631.739014,409.036072 629.827820,423.873413 
	C624.710510,423.873413 619.603027,423.873413 613.996521,423.873901 
M568.747314,356.708374 
	C551.242554,345.777588 533.235901,344.900330 515.589233,355.619171 
	C501.374878,364.253174 495.625885,378.250458 493.909180,394.587341 
	C525.437744,394.587341 556.310486,394.587341 587.507080,394.587341 
	C586.579590,379.335907 581.602966,366.464417 568.747314,356.708374 
z"/>
<path fill="#171F27" opacity="1.000000" stroke="none" 
	d="
M253.298508,417.329834 
	C253.282883,419.608063 253.282883,421.427612 253.282883,423.763489 
	C207.799866,423.763489 162.740799,423.763489 116.968010,423.763489 
	C117.664734,435.025635 120.814178,444.707977 127.702148,453.001617 
	C137.611496,464.933289 151.087097,469.733429 165.932388,470.869965 
	C187.847366,472.547729 208.623459,467.913025 228.269592,458.120300 
	C229.444672,457.534607 230.625168,456.959747 232.252335,456.158691 
	C237.717865,464.959900 243.125885,473.668518 249.026855,483.170898 
	C244.859436,485.438904 240.979797,487.857056 236.857376,489.745087 
	C204.469666,504.578247 170.832458,508.976898 136.113724,500.213837 
	C98.889175,490.818298 75.750488,463.212433 72.244812,424.967346 
	C70.253433,403.242432 72.197235,382.124084 82.511139,362.332001 
	C94.150002,339.997345 112.378883,325.981293 136.537827,319.918701 
	C157.110397,314.756134 177.757996,315.062408 198.110870,321.665649 
	C227.562683,331.220917 244.244553,352.368622 250.607117,381.701843 
	C253.076218,393.085114 252.501999,405.128479 253.298508,417.329834 
M118.063911,388.429596 
	C117.734138,390.354401 117.404366,392.279236 117.020996,394.516907 
	C148.349152,394.516907 179.192795,394.516907 210.026749,394.516907 
	C210.641632,363.797394 183.817169,342.654114 153.050354,349.619171 
	C132.899521,354.180969 122.308304,368.070892 118.063911,388.429596 
z"/>
<path fill="#151E26" opacity="1.000000" stroke="none" 
	d="
M714.275146,401.418213 
	C714.270691,434.189728 714.270691,466.493927 714.270691,499.204926 
	C699.272705,499.204926 684.570679,499.204926 669.521240,499.204926 
	C669.521240,440.320953 669.521240,381.449493 669.521240,322.179504 
	C684.169922,322.179504 698.869141,322.179504 714.187927,322.179504 
	C714.187927,329.475586 714.187927,336.682404 714.187927,343.889221 
	C714.629944,344.118958 715.072021,344.348663 715.514038,344.578400 
	C716.105591,343.648499 716.626221,342.663544 717.299133,341.796814 
	C731.895508,322.996094 751.866943,316.163147 774.804688,316.348297 
	C785.158325,316.431854 795.389404,317.719757 805.007935,322.040100 
	C825.872498,331.411835 836.017395,348.979004 841.001526,370.074585 
	C842.899902,378.109497 843.959778,386.521912 844.040283,394.775513 
	C844.369873,428.591003 844.176636,462.411652 844.160889,496.230377 
	C844.160400,497.191833 843.993347,498.153259 843.884827,499.321045 
	C829.248413,499.321045 814.808167,499.321045 800.020081,499.321045 
	C799.923584,497.917419 799.761353,496.659393 799.761719,495.401459 
	C799.771057,465.580994 799.799622,435.760498 799.820557,405.940033 
	C799.828064,395.222992 798.851074,384.652344 794.972046,374.538910 
	C790.582336,363.093811 782.443420,355.541321 770.419128,353.388947 
	C737.374146,347.474030 717.430298,364.390228 714.611145,395.465027 
	C714.445618,397.288666 714.387634,399.122101 714.275146,401.418213 
z"/>
<path fill="#0974BC" opacity="1.000000" stroke="none" 
	d="
M1173.973511,248.087845 
	C1132.505249,262.716492 1088.086914,240.904938 1075.805542,200.205048 
	C1062.790649,157.074997 1086.594971,113.432480 1129.204956,102.302864 
	C1162.057495,93.721863 1196.490234,108.437859 1213.789062,138.452652 
	C1230.640869,167.691803 1225.821533,205.567795 1202.443848,229.386505 
	C1194.356934,237.626007 1184.932251,243.617752 1173.973511,248.087845 
z"/>
<path fill="#0974BC" opacity="1.000000" stroke="none" 
	d="
M585.911377,212.853058 
	C575.723633,230.338181 561.749451,242.979599 542.733887,249.231979 
	C495.128662,264.884735 442.232178,228.861359 443.745331,174.360718 
	C444.910278,132.402832 479.680298,98.455513 520.634644,99.903503 
	C563.585632,101.422096 596.451050,136.484680 594.894043,179.049408 
	C594.460938,190.890411 591.498047,202.016479 585.911377,212.853058 
z"/>
<path fill="#0974BC" opacity="1.000000" stroke="none" 
	d="
M763.440430,100.358559 
	C795.469299,97.705215 824.266846,114.166046 838.494629,142.978958 
	C851.953003,170.233704 847.296570,203.970795 826.905945,226.942703 
	C802.986389,253.890106 764.489502,260.637787 733.767883,243.267654 
	C701.910950,225.255630 686.744812,187.789703 698.551758,152.661224 
	C708.818542,122.115105 730.920227,104.763573 763.440430,100.358559 
z"/>
<path fill="#161F27" opacity="1.000000" stroke="none" 
	d="
M945.183716,386.010315 
	C959.292786,391.593475 973.267517,396.535095 986.780701,402.519073 
	C1007.728882,411.795563 1018.181580,428.248352 1016.874756,451.291962 
	C1015.587097,473.996185 1003.235107,488.863098 982.462219,497.128082 
	C963.795105,504.555237 944.286804,504.325470 924.820251,502.532349 
	C909.212158,501.094574 893.944824,497.552887 879.399231,491.429352 
	C878.206360,490.927185 877.099915,490.219818 875.679016,489.461395 
	C879.378479,479.463989 882.996704,469.686127 886.796082,459.418762 
	C891.428284,461.057495 895.864746,462.738190 900.371948,464.201111 
	C915.361145,469.066223 930.667114,472.634277 946.484375,470.823975 
	C952.899353,470.089813 959.697693,468.127991 965.186523,464.833649 
	C976.552856,458.011749 976.931274,443.350830 965.714661,436.399200 
	C957.209229,431.127899 947.406128,427.943573 938.161621,423.873474 
	C928.146057,419.463898 917.710815,415.826385 908.165222,410.569061 
	C889.449829,400.261353 882.469116,383.500854 884.595459,362.686218 
	C886.699707,342.087585 898.322571,328.734039 917.424255,322.105713 
	C944.856567,312.586670 972.218628,315.595703 999.319702,324.080811 
	C1003.116150,325.269409 1006.782349,326.878448 1010.493286,328.332581 
	C1011.240051,328.625183 1011.916260,329.097992 1013.012207,329.700623 
	C1009.484863,339.492462 1006.014526,349.125916 1002.649231,358.467896 
	C992.330139,355.660400 982.510803,352.579987 972.497742,350.382050 
	C962.876526,348.270081 953.063904,347.570129 943.277832,350.001740 
	C934.401794,352.207214 928.010132,358.667572 927.566833,365.900665 
	C927.248657,371.092285 928.754028,375.616699 932.944885,378.672333 
	C936.671021,381.389069 940.858582,383.472839 945.183716,386.010315 
z"/>
<path fill="#161F27" opacity="1.000000" stroke="none" 
	d="
M408.411499,479.390076 
	C396.568817,494.065216 380.598145,500.563385 363.022980,502.497040 
	C334.299805,505.657288 306.214752,502.217041 279.382538,490.829102 
	C278.781494,490.573975 278.228973,490.204590 277.201263,489.639832 
	C280.989990,479.624512 284.766479,469.641602 288.454956,459.891327 
	C298.559723,462.885162 308.144135,466.139435 317.940430,468.522827 
	C330.321014,471.535004 342.927155,472.591919 355.561157,469.819672 
	C358.302734,469.218140 361.090637,468.447937 363.595520,467.221069 
	C370.227600,463.972809 374.995239,459.135529 375.468170,451.250732 
	C375.933777,443.487396 372.018799,437.786316 365.486938,434.778046 
	C353.755737,429.375275 341.449707,425.227356 329.673859,419.912537 
	C320.499695,415.772003 311.178711,411.505463 302.946136,405.814758 
	C278.378784,388.832672 278.855652,340.848602 311.242859,325.103027 
	C324.010315,318.895935 337.490051,316.565979 351.390076,316.323456 
	C371.582977,315.971130 391.144470,319.492371 409.830902,327.363129 
	C411.180328,327.931519 412.464966,328.653717 414.178925,329.501984 
	C410.632690,339.335236 407.163483,348.954956 404.091248,357.473907 
	C390.107758,354.498138 376.781219,351.049927 363.243469,348.989502 
	C353.699707,347.536896 343.895691,348.166077 335.545502,354.382874 
	C326.895721,360.822632 325.775635,372.359650 334.479065,378.600861 
	C341.753693,383.817474 350.522583,387.048676 358.831482,390.700134 
	C369.615570,395.439301 381.115662,398.777252 391.398438,404.385315 
	C419.629486,419.782043 426.863617,452.574951 408.411499,479.390076 
z"/>
<path fill="#0A74BC" opacity="1.000000" stroke="none" 
	d="
M864.191284,145.808258 
	C855.833374,137.906845 847.725342,130.255539 839.071472,122.089088 
	C858.674744,103.579582 880.566345,95.745277 905.458984,99.540237 
	C937.191528,104.377983 958.387573,123.399689 967.793884,153.746521 
	C976.594421,182.138672 969.629028,207.835587 949.254639,230.618408 
	C920.745300,202.194260 892.593323,174.126328 864.191284,145.808258 
z"/>
<path fill="#0A74BC" opacity="1.000000" stroke="none" 
	d="
M615.078247,140.141876 
	C626.346313,120.667114 642.011047,107.246231 663.800049,101.948082 
	C669.823181,100.483521 676.157349,100.298058 682.813599,99.467720 
	C682.813599,151.087982 682.813599,201.634201 682.813599,252.972946 
	C659.134583,253.523987 639.601685,244.725449 624.865601,226.965012 
	C603.001648,200.613754 601.167847,171.269196 615.078247,140.141876 
z"/>
<path fill="#0974BC" opacity="1.000000" stroke="none" 
	d="
M1014.135742,114.109695 
	C1027.564209,104.076134 1042.333008,99.645905 1059.136719,100.171677 
	C1059.136719,151.073441 1059.136719,201.622330 1059.136719,252.148651 
	C1039.040527,258.494446 1004.538330,238.246201 991.133118,212.306335 
	C973.746460,178.662476 983.185364,137.948868 1014.135742,114.109695 
z"/>
<path fill="#1B252E" opacity="1.000000" stroke="none" 
	d="
M496.230591,568.073059 
	C496.295563,579.052612 496.395416,590.032104 496.417175,601.011719 
	C496.449188,617.150696 496.425446,633.289856 496.425446,649.710876 
	C493.591522,649.710876 490.994293,649.710876 488.062439,649.710876 
	C487.802399,648.431396 487.520477,647.044189 487.179688,645.367371 
	C486.479523,645.493469 485.823029,645.457153 485.330994,645.723938 
	C479.567230,648.850220 473.652985,651.379517 466.878906,650.972107 
	C456.776245,650.364563 449.379211,644.900085 448.172089,634.871643 
	C447.094116,625.916443 447.142609,616.577759 448.413788,607.653259 
	C449.860840,597.493896 457.878754,591.457947 468.623688,590.976379 
	C474.564117,590.710144 480.551208,591.485107 487.111328,591.821167 
	C487.111328,584.429138 487.111328,576.813232 487.628571,568.544800 
	C488.503754,567.431091 488.861694,566.969971 489.219604,566.508911 
	C490.807709,566.387756 492.395813,566.266724 494.531494,566.631104 
	C495.462921,567.435425 495.846741,567.754211 496.230591,568.073059 
M457.686676,631.356873 
	C460.557678,640.876099 465.402374,643.846619 475.188049,641.877625 
	C477.775452,641.356995 480.278442,640.401978 482.805573,639.600342 
	C485.811310,638.647034 487.226990,636.921204 487.073639,633.411682 
	C486.754669,626.113831 486.986542,618.791992 486.990356,611.479980 
	C486.992310,607.733093 486.990662,603.986267 486.990662,600.095947 
	C482.296234,599.587219 478.347992,598.870911 474.386322,598.786499 
	C464.211731,598.569824 458.083374,603.908875 457.252106,614.125793 
	C456.811035,619.546387 457.406891,625.051270 457.686676,631.356873 
z"/>
<path fill="#1C2630" opacity="1.000000" stroke="none" 
	d="
M1073.372803,607.405090 
	C1072.019775,600.850464 1069.814575,598.761963 1063.374390,598.926697 
	C1056.590942,599.100220 1049.824585,599.940063 1042.452515,600.537354 
	C1042.017700,598.662842 1041.551880,596.654724 1040.919189,593.927551 
	C1052.573120,591.039795 1063.923706,588.658691 1075.293945,592.995789 
	C1080.945557,595.151611 1083.150513,600.413086 1083.196655,606.355835 
	C1083.270020,615.845764 1083.429565,625.343018 1083.138916,634.824524 
	C1082.990967,639.649902 1084.582764,642.515015 1089.902222,643.213257 
	C1089.671509,645.446106 1089.454956,647.540710 1089.209106,649.918640 
	C1083.436279,650.957764 1078.553467,650.292297 1075.398193,645.196533 
	C1069.823486,647.009827 1064.465698,649.281677 1058.877197,650.380066 
	C1055.285767,651.085938 1051.172974,650.701111 1047.614746,649.683533 
	C1040.584106,647.673096 1037.380005,641.403992 1037.746094,632.081421 
	C1038.077881,623.632019 1041.962158,617.840515 1049.515747,616.224854 
	C1055.157227,615.018372 1061.045776,614.938477 1066.832520,614.454773 
	C1068.783936,614.291565 1070.760498,614.428894 1073.378052,614.428894 
	C1073.378052,612.041565 1073.378052,609.951904 1073.372803,607.405090 
M1050.986084,624.281738 
	C1046.640625,627.640625 1046.515137,632.239990 1047.631470,636.937988 
	C1048.500854,640.596863 1051.535400,642.893860 1054.988403,642.505554 
	C1060.671265,641.866394 1066.257202,640.256897 1071.825806,638.829163 
	C1072.615479,638.626648 1073.574585,637.165710 1073.608765,636.255493 
	C1073.787109,631.502991 1073.691895,626.740295 1073.691895,620.653015 
	C1065.896851,621.784302 1058.775146,622.817932 1050.986084,624.281738 
z"/>
<path fill="#1E2832" opacity="1.000000" stroke="none" 
	d="
M1205.342529,630.125244 
	C1208.182861,639.646790 1211.727295,642.487976 1221.164429,642.731079 
	C1224.641724,642.820679 1228.139160,642.476196 1231.614990,642.182312 
	C1234.909302,641.903809 1238.187378,641.432312 1241.977295,640.986328 
	C1241.977295,643.752563 1241.977295,646.106323 1241.977295,649.401428 
	C1233.814575,649.891785 1225.708252,650.975525 1217.643433,650.724487 
	C1205.328979,650.341064 1197.448975,643.507996 1196.119751,631.306396 
	C1195.255493,623.372620 1195.439575,614.934204 1197.212158,607.193176 
	C1200.007324,594.986938 1209.984253,589.506714 1223.701294,590.786194 
	C1235.424683,591.879639 1242.486450,598.846313 1243.819092,611.109009 
	C1244.264160,615.204651 1243.889404,619.389404 1243.889404,624.020935 
	C1231.037354,624.020935 1218.454468,624.020935 1205.274170,624.020935 
	C1205.274170,626.242065 1205.274170,627.975525 1205.342529,630.125244 
M1234.115601,610.014893 
	C1231.328979,600.076538 1226.030640,596.836914 1216.034912,598.959351 
	C1208.562500,600.546021 1204.230591,607.821106 1205.620239,616.663574 
	C1215.088379,616.663574 1224.579224,616.663574 1234.209961,616.663574 
	C1234.209961,614.500610 1234.209961,612.701294 1234.115601,610.014893 
z"/>
<path fill="#1D2730" opacity="1.000000" stroke="none" 
	d="
M710.356567,650.730225 
	C696.575073,647.120117 690.868164,640.635681 690.337219,626.755615 
	C690.080139,620.033997 690.487427,613.026855 692.150085,606.548462 
	C695.164795,594.802063 705.579468,589.336365 719.711914,590.871704 
	C731.217102,592.121643 738.063110,599.196411 739.050049,611.225037 
	C739.386597,615.327576 739.103455,619.481018 739.103455,624.152527 
	C726.052917,624.152527 713.311218,624.152527 700.657715,624.152527 
	C699.021240,636.657776 706.500488,642.730896 716.380371,642.737000 
	C723.156555,642.741211 729.933289,641.842346 737.131592,641.316345 
	C737.131592,643.693848 737.131592,645.932373 737.131592,649.661987 
	C728.449036,650.035889 719.611938,650.416443 710.356567,650.730225 
M719.439575,616.826904 
	C722.708252,616.826904 725.976868,616.826904 729.716248,616.826904 
	C729.586121,610.179810 729.406128,604.058228 723.564758,600.466797 
	C718.066406,597.086304 712.021484,597.309937 706.609680,600.784729 
	C700.967224,604.407654 700.352112,610.352417 700.137512,616.822205 
	C706.586426,616.822205 712.522278,616.822205 719.439575,616.826904 
z"/>
<path fill="#1C2630" opacity="1.000000" stroke="none" 
	d="
M525.603027,638.399048 
	C533.168396,644.514526 541.443176,643.138428 549.715454,641.920959 
	C552.462830,641.516663 555.235535,641.284729 558.416443,640.926697 
	C558.416443,643.714844 558.416443,645.941040 558.416443,649.538757 
	C549.874390,649.963562 541.293091,651.153870 532.819397,650.623901 
	C521.502075,649.916138 515.321167,644.168091 512.737976,633.049988 
	C510.603729,623.864014 510.692993,614.484436 513.747437,605.479797 
	C517.507141,594.396057 527.432983,589.355713 541.197754,590.977539 
	C552.123230,592.264832 558.909912,599.221863 560.040283,610.776917 
	C560.455872,615.025391 560.107361,619.348633 560.107361,624.174927 
	C547.170654,624.174927 534.580688,624.174927 521.599854,624.174927 
	C521.246521,629.650269 522.171570,634.160950 525.603027,638.399048 
M547.972839,616.800049 
	C548.888794,615.965393 550.506287,615.211060 550.612549,614.283630 
	C551.712463,604.685730 545.608826,598.150208 536.034790,598.413452 
	C526.237976,598.682739 520.838562,605.472351 521.812256,616.300415 
	C522.093811,616.458374 522.374756,616.753296 522.656921,616.754395 
	C530.793884,616.785522 538.930847,616.787292 547.972839,616.800049 
z"/>
<path fill="#1D262F" opacity="1.000000" stroke="none" 
	d="
M838.600342,618.009155 
	C838.565125,628.488647 838.532776,638.470215 838.478027,648.451782 
	C838.476379,648.751709 838.240845,649.050354 838.000305,649.619629 
	C835.182251,649.619629 832.250305,649.619629 828.941528,649.619629 
	C828.941528,630.643127 828.941528,611.621704 828.941528,592.105652 
	C832.427856,593.015747 837.408752,588.822571 838.524536,596.267944 
	C845.769897,592.287231 853.164185,590.149658 861.198059,591.079895 
	C869.498840,592.040955 875.404297,596.710327 875.772583,604.884216 
	C876.443909,619.782471 875.963318,634.732666 875.963318,649.799927 
	C872.999329,649.799927 870.190002,649.799927 866.784607,649.799927 
	C866.784607,642.023621 866.804199,634.252625 866.777893,626.481750 
	C866.759338,620.991516 866.942932,615.483032 866.561462,610.015808 
	C866.031860,602.426636 862.006531,598.615356 854.485840,599.307373 
	C849.796570,599.738953 845.180786,601.526550 840.690186,603.144592 
	C839.650391,603.519226 838.771729,605.647461 838.660645,607.036011 
	C838.382812,610.507202 838.588318,614.017029 838.600342,618.009155 
z"/>
<path fill="#1D262F" opacity="1.000000" stroke="none" 
	d="
M1132.731934,625.831665 
	C1132.732300,614.383057 1132.732300,603.414307 1132.732300,592.144043 
	C1136.004517,592.144043 1138.919312,592.144043 1142.327026,592.144043 
	C1142.327026,598.068176 1142.282349,603.855591 1142.338257,609.641968 
	C1142.410522,617.130249 1142.329224,624.630859 1142.746216,632.101990 
	C1143.163940,639.587097 1147.048218,642.729187 1154.549561,642.329163 
	C1155.710815,642.267334 1156.874878,642.149658 1158.022339,641.963196 
	C1168.881104,640.198853 1169.927856,638.972107 1169.931763,628.049072 
	C1169.935913,616.254639 1169.932739,604.460266 1169.932739,592.285828 
	C1173.316650,592.285828 1176.347412,592.285828 1179.709717,592.285828 
	C1179.709717,611.342529 1179.709717,630.256531 1179.709717,649.562866 
	C1177.131348,649.562866 1174.400024,649.562866 1171.221436,649.562866 
	C1170.923218,648.558472 1170.535522,647.252747 1170.151978,645.961182 
	C1165.645752,647.460266 1161.530396,649.322510 1157.215576,650.176575 
	C1141.249878,653.336548 1132.970947,646.488281 1132.741089,630.306458 
	C1132.722168,628.974976 1132.734131,627.643188 1132.731934,625.831665 
z"/>
<path fill="#1D262F" opacity="1.000000" stroke="none" 
	d="
M668.357605,636.617065 
	C664.410889,650.217773 664.410828,650.221313 650.574890,649.949585 
	C649.437622,649.927246 648.302185,649.812927 647.091431,649.736694 
	C641.489685,630.611511 635.937622,611.656189 630.257812,592.264587 
	C633.851318,592.264587 637.110168,592.264587 640.839783,592.264587 
	C645.427307,608.738892 650.099426,625.516907 654.771545,642.294983 
	C655.353638,642.269836 655.935730,642.244690 656.517822,642.219543 
	C657.040405,640.958130 657.678650,639.731262 658.067566,638.429871 
	C661.922852,625.531982 665.756836,612.627563 669.555420,599.712830 
	C672.019226,591.336487 671.988586,591.327454 681.718262,592.472778 
	C677.274841,607.122192 672.861206,621.673157 668.357605,636.617065 
z"/>
<path fill="#1D2730" opacity="1.000000" stroke="none" 
	d="
M1022.727905,615.908386 
	C1019.638367,626.161377 1016.592407,636.010681 1013.711914,645.908081 
	C1012.865173,648.817566 1011.614014,650.110657 1008.237427,650.077759 
	C995.840454,649.957031 995.871765,650.105713 992.322998,638.044983 
	C988.285461,624.323059 984.174927,610.622620 980.116699,596.906677 
	C979.702026,595.505066 979.428040,594.061768 979.110840,592.730774 
	C979.582031,592.405579 979.827087,592.092896 980.093384,592.073608 
	C989.107483,591.420837 989.052368,591.440063 991.388855,599.930786 
	C994.784973,612.272583 998.252441,624.594849 1001.737976,636.911743 
	C1002.245789,638.706177 1003.021973,640.424622 1003.673889,642.178284 
	C1004.224915,642.186096 1004.775879,642.193970 1005.326904,642.201843 
	C1006.269348,638.997742 1007.210693,635.793396 1008.154419,632.589661 
	C1011.582336,620.952454 1015.298462,609.388733 1018.296204,597.641724 
	C1019.475403,593.020630 1021.408508,591.144287 1026.017212,591.930237 
	C1027.141235,592.121887 1028.309326,592.055176 1030.144409,592.138367 
	C1027.635132,600.165649 1025.234863,607.844360 1022.727905,615.908386 
z"/>
<path fill="#242E38" opacity="1.000000" stroke="none" 
	d="
M1294.985718,131.812653 
	C1290.153687,146.185577 1278.896240,154.311081 1264.907959,153.862900 
	C1251.238159,153.424896 1239.519165,144.414307 1236.132446,131.737808 
	C1232.336548,117.529671 1237.786743,103.960533 1249.664673,96.100365 
	C1262.094971,87.874741 1285.333252,93.076996 1291.929443,107.609795 
	C1295.607910,115.714561 1296.836182,123.095093 1294.985718,131.812653 
M1284.713379,139.756439 
	C1289.879028,132.945602 1292.156738,125.501839 1289.748779,116.400726 
	C1289.038818,114.642708 1288.328735,112.884689 1287.424072,110.393616 
	C1287.023926,109.863876 1286.591919,109.355110 1286.228516,108.801239 
	C1281.110840,101.001389 1268.676392,94.830971 1260.110107,97.322647 
	C1246.373779,101.318153 1237.953491,114.318039 1241.311157,129.402420 
	C1244.229248,142.512680 1262.134521,155.899429 1279.668457,144.123016 
	C1281.142700,142.760803 1282.616943,141.398575 1284.713379,139.756439 
z"/>
<path fill="#1F2830" opacity="1.000000" stroke="none" 
	d="
M586.793091,625.000000 
	C586.789978,633.456482 586.789978,641.412903 586.789978,649.671509 
	C583.216980,649.671509 580.144165,649.671509 576.858521,649.671509 
	C576.858521,622.057373 576.858521,594.487488 576.858521,566.517761 
	C580.115051,566.517761 583.132812,566.517761 586.796204,566.517761 
	C586.796204,585.985535 586.796204,605.242798 586.793091,625.000000 
z"/>
<path fill="#212932" opacity="1.000000" stroke="none" 
	d="
M1113.188477,612.000732 
	C1113.189941,624.791931 1113.189941,637.083069 1113.189941,649.673462 
	C1109.810303,649.673462 1106.754150,649.673462 1103.397217,649.673462 
	C1103.316528,648.491882 1103.173706,647.377136 1103.173950,646.262451 
	C1103.179199,622.150452 1103.195190,598.038391 1103.221069,573.926392 
	C1103.230347,565.290771 1103.602051,565.020264 1113.186890,566.790833 
	C1113.186890,581.637939 1113.186890,596.569336 1113.188477,612.000732 
z"/>
<path fill="#232C34" opacity="1.000000" stroke="none" 
	d="
M765.219116,618.042480 
	C765.221619,628.827942 765.221619,639.121460 765.221619,649.685913 
	C761.808289,649.685913 758.757324,649.685913 755.429810,649.685913 
	C755.429810,630.409119 755.429810,611.369019 755.429810,592.054504 
	C758.373596,592.054504 761.144836,592.054504 764.400879,592.054504 
	C764.723328,594.596313 765.042419,597.111938 765.336670,599.432007 
	C771.908020,596.374207 778.217957,593.438110 785.423584,590.085144 
	C785.423584,594.470947 785.423584,597.368042 785.423584,600.315674 
	C781.176331,601.639832 776.796997,602.993042 772.425476,604.370972 
	C765.813477,606.455139 764.163086,611.266602 765.219116,618.042480 
z"/>
<path fill="#232C34" opacity="1.000000" stroke="none" 
	d="
M606.408875,607.006958 
	C606.408020,601.870178 606.408020,597.231873 606.408020,592.234253 
	C609.643616,592.234253 612.686523,592.234253 616.118042,592.234253 
	C616.118042,611.248291 616.118042,630.265381 616.118042,649.612305 
	C613.123840,649.612305 610.057983,649.612305 606.409729,649.612305 
	C606.409729,635.626953 606.409729,621.566162 606.408875,607.006958 
z"/>
<path fill="#1C2630" opacity="1.000000" stroke="none" 
	d="
M799.473755,635.989319 
	C799.472961,621.197266 799.472961,606.902649 799.472961,592.298828 
	C802.903503,592.298828 805.828186,592.298828 809.103394,592.298828 
	C809.103394,611.315735 809.103394,630.372742 809.103394,649.680664 
	C806.044556,649.680664 803.107849,649.680664 799.474609,649.680664 
	C799.474609,645.308167 799.474609,640.897461 799.473755,635.989319 
z"/>
<path fill="#333C44" opacity="1.000000" stroke="none" 
	d="
M614.312256,568.005493 
	C615.638550,571.518555 616.563110,575.019836 617.667847,579.203735 
	C613.176392,579.203735 609.996582,579.203735 606.810913,579.200195 
	C604.536926,568.865601 605.141846,567.911926 614.312256,568.005493 
z"/>
<path fill="#333C44" opacity="1.000000" stroke="none" 
	d="
M809.359741,578.317200 
	C806.156189,579.169739 803.036255,579.604614 799.456909,580.103516 
	C799.456909,575.755188 799.456909,572.234253 799.456909,568.328857 
	C802.629517,568.328857 805.672119,568.328857 809.443359,568.328857 
	C809.443359,571.464172 809.443359,574.681824 809.359741,578.317200 
z"/>
<path fill="#081018" opacity="1.000000" stroke="none" 
	d="
M488.676697,566.507568 
	C488.861694,566.969971 488.503754,567.431091 487.763306,568.119385 
	C487.631775,567.733154 487.882782,567.119690 488.676697,566.507568 
z"/>
<path fill="#081018" opacity="1.000000" stroke="none" 
	d="
M496.250916,567.592224 
	C495.846741,567.754211 495.462921,567.435425 494.908783,566.772339 
	C495.249420,566.655823 495.760345,566.883606 496.250916,567.592224 
z"/>
<path fill="#F6F6F6" opacity="1.000000" stroke="none" 
	d="
M931.838135,663.497681 
	C926.316223,669.335510 910.201904,670.919800 904.181763,666.553162 
	C900.801270,664.101318 899.560059,659.345825 901.659485,654.861511 
	C903.398560,651.147095 905.208923,647.404846 910.849854,648.637573 
	C914.350952,649.402588 918.132629,648.872925 921.787964,648.944397 
	C931.651855,649.137390 934.974426,653.754333 931.838135,663.497681 
z"/>
<path fill="#F6F6F6" opacity="1.000000" stroke="none" 
	d="
M920.687744,598.919556 
	C927.410095,602.991150 929.356995,612.614197 925.002441,618.520691 
	C921.337158,623.492249 910.370667,624.714417 905.537292,620.525940 
	C901.045532,616.633362 901.238708,611.362061 902.294800,606.255981 
	C903.217468,601.795471 906.361267,599.037903 910.998047,598.664246 
	C914.079346,598.415894 917.205688,598.726807 920.687744,598.919556 
z"/>
<path fill="#FBFBFA" opacity="1.000000" stroke="none" 
	d="
M1183.852295,382.312256 
	C1184.600464,386.456024 1185.210938,390.214294 1185.902588,394.472351 
	C1154.441528,394.472351 1123.443726,394.472351 1092.440552,394.472351 
	C1093.005859,372.307678 1108.011230,352.746857 1129.904907,349.073273 
	C1156.169312,344.666321 1176.787964,357.150848 1183.852295,382.312256 
z"/>
<path fill="#FBFBFA" opacity="1.000000" stroke="none" 
	d="
M569.060181,356.885193 
	C581.602966,366.464417 586.579590,379.335907 587.507080,394.587341 
	C556.310486,394.587341 525.437744,394.587341 493.909180,394.587341 
	C495.625885,378.250458 501.374878,364.253174 515.589233,355.619171 
	C533.235901,344.900330 551.242554,345.777588 569.060181,356.885193 
z"/>
<path fill="#FBFBFA" opacity="1.000000" stroke="none" 
	d="
M118.110451,388.018250 
	C122.308304,368.070892 132.899521,354.180969 153.050354,349.619171 
	C183.817169,342.654114 210.641632,363.797394 210.026749,394.516907 
	C179.192795,394.516907 148.349152,394.516907 117.020996,394.516907 
	C117.404366,392.279236 117.734138,390.354401 118.110451,388.018250 
z"/>
<path fill="#FBFBFA" opacity="1.000000" stroke="none" 
	d="
M457.610657,630.937500 
	C457.406891,625.051270 456.811035,619.546387 457.252106,614.125793 
	C458.083374,603.908875 464.211731,598.569824 474.386322,598.786499 
	C478.347992,598.870911 482.296234,599.587219 486.990662,600.095947 
	C486.990662,603.986267 486.992310,607.733093 486.990356,611.479980 
	C486.986542,618.791992 486.754669,626.113831 487.073639,633.411682 
	C487.226990,636.921204 485.811310,638.647034 482.805573,639.600342 
	C480.278442,640.401978 477.775452,641.356995 475.188049,641.877625 
	C465.402374,643.846619 460.557678,640.876099 457.610657,630.937500 
z"/>
<path fill="#F6F6F6" opacity="1.000000" stroke="none" 
	d="
M1051.319824,624.066650 
	C1058.775146,622.817932 1065.896851,621.784302 1073.691895,620.653015 
	C1073.691895,626.740295 1073.787109,631.502991 1073.608765,636.255493 
	C1073.574585,637.165710 1072.615479,638.626648 1071.825806,638.829163 
	C1066.257202,640.256897 1060.671265,641.866394 1054.988403,642.505554 
	C1051.535400,642.893860 1048.500854,640.596863 1047.631470,636.937988 
	C1046.515137,632.239990 1046.640625,627.640625 1051.319824,624.066650 
z"/>
<path fill="#F6F6F6" opacity="1.000000" stroke="none" 
	d="
M1234.162842,610.458435 
	C1234.209961,612.701294 1234.209961,614.500610 1234.209961,616.663574 
	C1224.579224,616.663574 1215.088379,616.663574 1205.620239,616.663574 
	C1204.230591,607.821106 1208.562500,600.546021 1216.034912,598.959351 
	C1226.030640,596.836914 1231.328979,600.076538 1234.162842,610.458435 
z"/>
<path fill="#F3F4F4" opacity="1.000000" stroke="none" 
	d="
M718.948853,616.824585 
	C712.522278,616.822205 706.586426,616.822205 700.137512,616.822205 
	C700.352112,610.352417 700.967224,604.407654 706.609680,600.784729 
	C712.021484,597.309937 718.066406,597.086304 723.564758,600.466797 
	C729.406128,604.058228 729.586121,610.179810 729.716248,616.826904 
	C725.976868,616.826904 722.708252,616.826904 718.948853,616.824585 
z"/>
<path fill="#F3F4F4" opacity="1.000000" stroke="none" 
	d="
M547.520386,616.796875 
	C538.930847,616.787292 530.793884,616.785522 522.656921,616.754395 
	C522.374756,616.753296 522.093811,616.458374 521.814575,616.296265 
	C520.838562,605.472351 526.237976,598.682739 536.034790,598.413452 
	C545.608826,598.150208 551.712463,604.685730 550.612549,614.283630 
	C550.506287,615.211060 548.888794,615.965393 547.520386,616.796875 
z"/>
<path fill="#F6F6F6" opacity="1.000000" stroke="none" 
	d="
M1289.696289,117.019699 
	C1292.156738,125.501839 1289.879028,132.945602 1284.025513,139.873505 
	C1281.502319,138.680420 1279.666992,137.370285 1277.594971,135.899689 
	C1277.227783,135.187454 1277.097412,134.635681 1276.979858,133.731003 
	C1276.363892,132.583588 1275.734985,131.789062 1274.967896,130.867218 
	C1274.829834,130.739899 1274.858154,130.365372 1274.903564,129.946045 
	C1274.969482,128.403992 1274.989868,127.281273 1275.221558,125.876877 
	C1276.720215,122.401474 1278.007690,119.207733 1279.567139,115.963333 
	C1279.613647,115.272278 1279.388184,114.631866 1279.012939,113.664474 
	C1277.611450,109.676003 1275.535645,106.411919 1271.473267,106.113686 
	C1265.582031,105.681183 1259.635376,106.002846 1253.437256,106.002846 
	C1253.437256,117.482651 1253.437256,128.838165 1253.437256,140.274979 
	C1255.815796,140.274979 1257.877930,140.274979 1260.417480,140.274979 
	C1260.417480,136.017395 1260.417480,132.120560 1260.417480,128.665115 
	C1265.434448,126.262276 1266.835815,129.458115 1268.207520,132.679184 
	C1270.244995,137.463669 1272.198120,142.345978 1278.987427,141.310318 
	C1278.995972,142.445297 1278.997192,143.201981 1278.998291,143.958679 
	C1262.134521,155.899429 1244.229248,142.512680 1241.311157,129.402420 
	C1237.953491,114.318039 1246.373779,101.318153 1260.110107,97.322647 
	C1268.676392,94.830971 1281.110840,101.001389 1286.228516,108.801239 
	C1286.591919,109.355110 1287.023926,109.863876 1287.077515,110.725220 
	C1284.494873,110.842766 1282.435181,111.299965 1283.169067,114.054100 
	C1283.539795,115.445389 1285.087402,116.766258 1286.433105,117.557243 
	C1287.163330,117.986450 1288.585938,117.237320 1289.696289,117.019699 
z"/>
<path fill="#EEEEEC" opacity="1.000000" stroke="none" 
	d="
M1289.722534,116.710213 
	C1288.585938,117.237320 1287.163330,117.986450 1286.433105,117.557243 
	C1285.087402,116.766258 1283.539795,115.445389 1283.169067,114.054100 
	C1282.435181,111.299965 1284.494873,110.842766 1287.174805,111.091751 
	C1288.328735,112.884689 1289.038818,114.642708 1289.722534,116.710213 
z"/>
<path fill="#EEEEEC" opacity="1.000000" stroke="none" 
	d="
M1279.333496,144.040848 
	C1278.997192,143.201981 1278.995972,142.445297 1279.139648,140.961670 
	C1278.800171,138.843201 1278.315918,137.451675 1277.831665,136.060150 
	C1279.666992,137.370285 1281.502319,138.680420 1283.714355,140.013458 
	C1282.616943,141.398575 1281.142700,142.760803 1279.333496,144.040848 
z"/>
<path fill="#282F37" opacity="1.000000" stroke="none" 
	d="
M1277.594971,135.899689 
	C1278.315918,137.451675 1278.800171,138.843201 1279.132324,140.583374 
	C1272.198120,142.345978 1270.244995,137.463669 1268.207520,132.679184 
	C1266.835815,129.458115 1265.434448,126.262276 1260.417480,128.665115 
	C1260.417480,132.120560 1260.417480,136.017395 1260.417480,140.274979 
	C1257.877930,140.274979 1255.815796,140.274979 1253.437256,140.274979 
	C1253.437256,128.838165 1253.437256,117.482651 1253.437256,106.002846 
	C1259.635376,106.002846 1265.582031,105.681183 1271.473267,106.113686 
	C1275.535645,106.411919 1277.611450,109.676003 1278.946411,114.003845 
	C1279.118042,115.118134 1279.206665,115.566071 1279.295166,116.013992 
	C1278.007690,119.207733 1276.720215,122.401474 1274.907471,125.933731 
	C1274.540894,127.636612 1274.699585,129.000992 1274.858154,130.365372 
	C1274.858154,130.365372 1274.829834,130.739899 1274.959229,131.183304 
	C1275.714722,132.445770 1276.340820,133.264847 1276.966919,134.083908 
	C1277.097412,134.635681 1277.227783,135.187454 1277.594971,135.899689 
M1268.798828,111.163361 
	C1266.047852,111.163361 1263.296997,111.163361 1260.349609,111.163361 
	C1260.349609,114.913696 1260.349609,118.297745 1260.349609,122.041611 
	C1264.519531,121.711670 1269.098999,124.168846 1271.695190,119.353287 
	C1273.236572,116.493958 1272.578735,113.538589 1268.798828,111.163361 
z"/>
<path fill="#EEEEEC" opacity="1.000000" stroke="none" 
	d="
M1274.903564,129.946045 
	C1274.699585,129.000992 1274.540894,127.636612 1274.696289,126.215393 
	C1274.989868,127.281273 1274.969482,128.403992 1274.903564,129.946045 
z"/>
<path fill="#EEEEEC" opacity="1.000000" stroke="none" 
	d="
M1276.979858,133.731003 
	C1276.340820,133.264847 1275.714722,132.445770 1275.097290,131.310623 
	C1275.734985,131.789062 1276.363892,132.583588 1276.979858,133.731003 
z"/>
<path fill="#EEEEEC" opacity="1.000000" stroke="none" 
	d="
M1279.567139,115.963348 
	C1279.206665,115.566071 1279.118042,115.118134 1279.096191,114.330826 
	C1279.388184,114.631866 1279.613647,115.272278 1279.567139,115.963348 
z"/>
<path fill="#EEEEEC" opacity="1.000000" stroke="none" 
	d="
M1269.175293,111.374390 
	C1272.578735,113.538589 1273.236572,116.493958 1271.695190,119.353287 
	C1269.098999,124.168846 1264.519531,121.711670 1260.349609,122.041611 
	C1260.349609,118.297745 1260.349609,114.913696 1260.349609,111.163361 
	C1263.296997,111.163361 1266.047852,111.163361 1269.175293,111.374390 
z"/>
</svg>